# xmcd
#
# Track frame offsets:
#	150
#	6587
#	15494
#	28569
#	33915
#	52344
#	69083
#	80246
#	100296
#	127027
#	137619
#	157830
#	161495
#	169608
#	180304
#	193952
#
# Disc length: 2693 seconds
#
# Revision: 1
# Processed by: cddbd v1.5.2PL0 Copyright (c) Steve Scherf et al.
# Submitted via: audiograbber 1.83.01
#
DISCID=ce0a8310
DTITLE=Lou Reed and Kris Kristofferson - The Bottomline Archive #1
DYEAR=1900
DGENRE=
TTITLE0=Introduction
TTITLE1=Vin Scelsa Introduces Lou Reed
TTITLE2=Betrayed
TTITLE3=VS Introduces Kris Kristofferson
TTITLE4=Shipwrecked
TTITLE5=LR On Songwriting
TTITLE6=Legendary Hearts
TTITLE7=KK On His Childhood
TTITLE8=Sunday Morning Coming Down
TTITLE9=LR On New York City
TTITLE10=Strawman
TTITLE11=KK Talks About "Strawman"
TTITLE12=Sam's Song
TTITLE13=LR On Writing For Wim Wenders
TTITLE14=Why Can't I Be Good
TTITLE15=LR On Autobiographical Writing
EXTD=
EXTT0=
EXTT1=
EXTT2=
EXTT3=
EXTT4=
EXTT5=
EXTT6=
EXTT7=
EXTT8=
EXTT9=
EXTT10=
EXTT11=
EXTT12=
EXTT13=
EXTT14=
EXTT15=
PLAYORDER=
